<svg width="277" height="94" viewBox="0 0 277 94" fill="none" xmlns="http://www.w3.org/2000/svg">
<path d="M220.441 86.3419C229.886 86.5723 239.333 86.803 248.778 87.0333C249.303 87.0461 249.828 87.0588 250.352 87.0716C249.828 87.0844 249.303 87.097 248.778 87.1098C239.333 87.3402 229.886 87.5709 220.441 87.8013C219.916 87.8141 219.391 87.8267 218.866 87.8395V86.3036C219.391 86.3164 219.916 86.3291 220.441 86.3419Z" fill="black"/>
<path d="M42.1991 86.3419C32.7533 86.5723 23.3072 86.803 13.8614 87.0333C13.3367 87.0461 12.812 87.0588 12.2872 87.0716C12.812 87.0844 13.3367 87.097 13.8614 87.1098C23.3072 87.3402 32.7533 87.5709 42.1991 87.8013C42.7238 87.8141 43.2486 87.8267 43.7733 87.8395V86.3036C43.2486 86.3164 42.7238 86.3291 42.1991 86.3419Z" fill="black"/>
<path d="M201.416 93.2157V82.8591H197.361V81.3893H207.144V82.8591H203.089V93.2157H201.416Z" fill="black"/>
<path d="M168.461 93.2157V81.3893H169.847L177.669 91.1039H176.942V81.3893H178.632V93.2157H177.247L169.424 83.5011H170.151V93.2157H168.461Z" fill="black"/>
<path d="M141.785 86.4915H147.868V87.9276H141.785V86.4915ZM141.937 91.7459H148.831V93.2157H140.248V81.3893H148.594V82.8591H141.937V91.7459Z" fill="black"/>
<path d="M113.322 93.2157V81.3893H115.011V91.7459H121.414V93.2157H113.322Z" fill="black"/>
<path d="M82.2615 93.2157L87.6172 81.3893H89.2898L94.6624 93.2157H92.8884L88.1072 82.3354H88.783L84.0017 93.2157H82.2615ZM84.5423 90.2591L84.9985 88.9075H91.6551L92.1451 90.2591H84.5423Z" fill="black"/>
<path d="M60.1849 93.2157V82.8591H56.1301V81.3893H65.9123V82.8591H61.8575V93.2157H60.1849Z" fill="black"/>
<path d="M182.773 73.2484L214.116 32.2726V43.9236L184.126 4.13265H203.286L224.008 31.8777L215.99 31.9764L236.399 4.13265H254.726L224.945 43.2324V31.7789L256.496 73.2484H237.024L215.573 43.9236H223.279L202.141 73.2484H182.773Z" fill="#730242"/>
<path d="M175.349 32.9966C178.495 32.9966 181.296 33.6355 183.754 34.9134C186.26 36.1421 188.226 38.0589 189.652 40.6638C191.077 43.2195 191.79 46.5125 191.79 50.5427V58.2733L180.289 73.2495V52.3121C180.289 49.1174 179.576 46.7583 178.151 45.2346C176.774 43.711 174.809 42.9492 172.253 42.9492C170.434 42.9492 168.788 43.3424 167.313 44.1288C165.888 44.866 164.758 46.021 163.922 47.5938C163.136 49.1666 162.742 51.1817 162.742 53.6391V73.2495H151.242V18.5468H162.742V44.5711L160.162 41.2536C161.587 38.5995 163.627 36.5598 166.281 35.1345C168.935 33.7092 171.958 32.9966 175.349 32.9966Z" fill="black"/>
<path d="M130.14 73.8396C125.864 73.8396 122.055 72.9795 118.713 71.2593C115.371 69.49 112.742 67.0571 110.825 63.9607C108.957 60.8643 108.023 57.3502 108.023 53.4182C108.023 49.4372 108.957 45.923 110.825 42.8758C112.742 39.7794 115.371 37.3711 118.713 35.6509C122.055 33.8815 125.864 32.9969 130.14 32.9969C134.318 32.9969 137.955 33.8815 141.051 35.6509C144.148 37.3711 146.433 39.8531 147.908 43.097L138.987 47.889C137.955 46.0213 136.653 44.6452 135.08 43.7605C133.556 42.8758 131.885 42.4335 130.067 42.4335C128.101 42.4335 126.331 42.8758 124.759 43.7605C123.186 44.6452 121.932 45.8985 120.999 47.5204C120.114 49.1423 119.672 51.1082 119.672 53.4182C119.672 55.7282 120.114 57.6942 120.999 59.3161C121.932 60.938 123.186 62.1913 124.759 63.076C126.331 63.9607 128.101 64.403 130.067 64.403C131.885 64.403 133.556 63.9853 135.08 63.1497C136.653 62.2651 137.955 60.8643 138.987 58.9475L147.908 63.8133C146.433 67.0079 144.148 69.49 141.051 71.2593C137.955 72.9795 134.318 73.8396 130.14 73.8396Z" fill="black"/>
<path d="M82.1019 73.2498V33.5866H93.0867V44.7926L91.5385 41.5488C92.7181 38.7473 94.6103 36.6339 97.2152 35.2086C99.8201 33.7341 102.99 32.9969 106.726 32.9969V43.613C106.234 43.5639 105.792 43.5393 105.399 43.5393C105.005 43.4902 104.588 43.4656 104.145 43.4656C101 43.4656 98.4439 44.3748 96.478 46.1934C94.5612 47.9627 93.6028 50.7396 93.6028 54.5241V73.2498H82.1019Z" fill="black"/>
<path d="M57.2739 73.8396C53.0471 73.8396 49.2872 72.955 45.9943 71.1856C42.7504 69.4162 40.1701 67.0079 38.2533 63.9607C36.3856 60.8643 35.4518 57.3502 35.4518 53.4182C35.4518 49.4372 36.3856 45.923 38.2533 42.8758C40.1701 39.7794 42.7504 37.3711 45.9943 35.6509C49.2872 33.8815 53.0471 32.9969 57.2739 32.9969C61.4516 32.9969 65.1869 33.8815 68.4799 35.6509C71.7729 37.3711 74.3532 39.7548 76.2209 42.8021C78.0885 45.8493 79.0223 49.388 79.0223 53.4182C79.0223 57.3502 78.0885 60.8643 76.2209 63.9607C74.3532 67.0079 71.7729 69.4162 68.4799 71.1856C65.1869 72.955 61.4516 73.8396 57.2739 73.8396ZM57.2739 64.403C59.1907 64.403 60.911 63.9607 62.4346 63.076C63.9582 62.1913 65.1623 60.938 66.047 59.3161C66.9317 57.6451 67.374 55.6791 67.374 53.4182C67.374 51.1082 66.9317 49.1423 66.047 47.5204C65.1623 45.8985 63.9582 44.6452 62.4346 43.7605C60.911 42.8758 59.1907 42.4335 57.2739 42.4335C55.3571 42.4335 53.6369 42.8758 52.1133 43.7605C50.5897 44.6452 49.361 45.8985 48.4271 47.5204C47.5424 49.1423 47.1001 51.1082 47.1001 53.4182C47.1001 55.6791 47.5424 57.6451 48.4271 59.3161C49.361 60.938 50.5897 62.1913 52.1133 63.076C53.6369 63.9607 55.3571 64.403 57.2739 64.403Z" fill="black"/>
<path d="M17.4841 73.2484V29.0055H0V18.7237H47.613V29.0055H30.1289V73.2484H17.4841Z" fill="black"/>
<path d="M259.525 1.32528V0H266.488V1.32528H263.791V8.72727H262.223V1.32528H259.525Z" fill="black"/>
<path d="M267.831 0H269.765L272.356 6.32386H272.459L275.05 0H276.984V8.72727H275.467V2.73153H275.386L272.974 8.7017H271.841L269.429 2.71875H269.348V8.72727H267.831V0Z" fill="black"/>
</svg>
